# xmcd
#
# Track frame offsets: 
#        150
#        23572
#        42927
#        62358
#        85705
#        102674
#        121692
#        137277
#        152956
#        167149
#        188580
#        204938
#        220632
#        235880
#        251783
#        267265
#        285599
#        305661
#
# Disc length: 4301 seconds
#
# Revision: 0
# Processed by: cddbd v1.5.2PL0 Copyright (c) Steve Scherf et al.
# Submitted via: ExactAudioCopy v1.0b3
#
DISCID=ed10cb12
DTITLE=Thelma Houston and Jerry Butler - Thelma and Jerry - Two To One
DYEAR=1977
DGENRE=Soul
TTITLE0=Only The Beginning
TTITLE1=And You've Got Me
TTITLE2=It's A Lifetime Thing
TTITLE3=If You Leave Me Now - Love So Right
TTITLE4=I Love You Through Windows
TTITLE5=Joy Inside My Tears
TTITLE6=Sweet Love I've Found
TTITLE7=(Play The Game Of) Let's Pretend
TTITLE8=Let's Get Together
TTITLE9=If It Would Never End
TTITLE10=Find A Way
TTITLE11=We Owe It To Ourselves
TTITLE12=I'm Not Strong Enough (To Love You Again)
TTITLE13=Never Gonna Get Enough
TTITLE14=Don't Pity Me
TTITLE15=Chicago Send Her Home
TTITLE16=You Gave Me Love
TTITLE17=Kiss Me Now (US Motown single M-1422)
EXTD=
EXTT0=
EXTT1=
EXTT2=
EXTT3=
EXTT4=
EXTT5=
EXTT6=
EXTT7=
EXTT8=
EXTT9=
EXTT10=
EXTT11=
EXTT12=
EXTT13=
EXTT14=
EXTT15=
EXTT16=
EXTT17=
PLAYORDER=
